<svg version="1.1" id="Layer_1" xmlns="http://www.w3.org/2000/svg" xmlns:xlink="http://www.w3.org/1999/xlink" x="0px" y="0px"
	 width="100%" viewBox="0 0 574 603" enable-background="new 0 0 574 603" xml:space="preserve">
<path fill="#FEFEFE" opacity="1.000000" stroke="none" 
	d="
M298.000000,604.000000 
	C198.666672,604.000000 99.833336,604.000000 1.000000,604.000000 
	C1.000000,403.000000 1.000000,202.000000 1.000000,1.000000 
	C192.333328,1.000000 383.666656,1.000000 575.000000,1.000000 
	C575.000000,202.000000 575.000000,403.000000 575.000000,604.000000 
	C482.833344,604.000000 390.666656,604.000000 298.000000,604.000000 
M402.127777,565.653992 
	C543.924377,501.929413 607.105591,338.236969 545.488281,197.031708 
	C482.422882,52.508236 316.492462,-10.120415 175.364166,51.852909 
	C31.588655,114.988701 -32.459805,280.757629 32.197151,424.534424 
	C96.539406,567.611450 261.031372,626.801453 402.127777,565.653992 
z"/>
<path fill="#010101" opacity="1.000000" stroke="none" 
	d="
M401.780365,565.808228 
	C261.031372,626.801453 96.539406,567.611450 32.197151,424.534424 
	C-32.459805,280.757629 31.588655,114.988701 175.364166,51.852909 
	C316.492462,-10.120415 482.422882,52.508236 545.488281,197.031708 
	C607.105591,338.236969 543.924377,501.929413 401.780365,565.808228 
M213.622879,384.072754 
	C213.329453,384.230957 213.045319,384.410217 212.741287,384.544434 
	C166.864731,404.798248 133.732590,437.872559 113.031006,483.508881 
	C111.850861,486.110474 111.736343,487.847656 114.028786,490.022247 
	C150.256577,524.388123 192.808548,546.495544 241.876251,555.741638 
	C275.519653,562.081299 309.116882,561.441345 342.588989,553.958069 
	C388.230011,543.754211 427.785706,522.293396 461.723541,490.237366 
	C463.835907,488.242126 464.444427,486.623322 463.110321,483.803436 
	C431.414764,416.809692 378.974213,378.387970 305.253113,369.967926 
	C273.882721,366.384979 243.523087,371.814911 213.622879,384.072754 
M331.025024,329.608765 
	C372.754883,308.961517 394.590271,266.478210 386.875641,220.944977 
	C377.380310,164.901733 319.789001,127.159485 264.831665,140.963913 
	C212.321121,154.153748 180.191650,203.175873 189.107498,256.501404 
	C199.849274,320.747528 271.532196,357.997803 331.025024,329.608765 
z"/>
<path fill="#FEFEFE" opacity="1.000000" stroke="none" 
	d="
M213.981293,383.937195 
	C243.523087,371.814911 273.882721,366.384979 305.253113,369.967926 
	C378.974213,378.387970 431.414764,416.809692 463.110321,483.803436 
	C464.444427,486.623322 463.835907,488.242126 461.723541,490.237366 
	C427.785706,522.293396 388.230011,543.754211 342.588989,553.958069 
	C309.116882,561.441345 275.519653,562.081299 241.876251,555.741638 
	C192.808548,546.495544 150.256577,524.388123 114.028786,490.022247 
	C111.736343,487.847656 111.850861,486.110474 113.031006,483.508881 
	C133.732590,437.872559 166.864731,404.798248 212.741287,384.544434 
	C213.045319,384.410217 213.329453,384.230957 213.981293,383.937195 
z"/>
<path fill="#FEFEFE" opacity="1.000000" stroke="none" 
	d="
M330.673553,329.746399 
	C271.532196,357.997803 199.849274,320.747528 189.107498,256.501404 
	C180.191650,203.175873 212.321121,154.153748 264.831665,140.963913 
	C319.789001,127.159485 377.380310,164.901733 386.875641,220.944977 
	C394.590271,266.478210 372.754883,308.961517 330.673553,329.746399 
z"/>
</svg>