<?xml version="1.0" standalone="no"?>
<!DOCTYPE svg PUBLIC "-//W3C//DTD SVG 20010904//EN"
 "http://www.w3.org/TR/2001/REC-SVG-20010904/DTD/svg10.dtd">
<svg version="1.0" xmlns="http://www.w3.org/2000/svg"
 width="25.000000pt" height="25.000000pt" viewBox="0 0 25.000000 25.000000"
 preserveAspectRatio="xMidYMid meet">

<g transform="translate(0.000000,25.000000) scale(0.100000,-0.100000)"
fill="#000000" stroke="none">
<path d="M85 221 c-65 -28 -82 -118 -32 -168 39 -40 105 -40 144 0 39 38 40
105 2 142 -27 28 -82 40 -114 26z m65 -46 c6 -8 10 -22 8 -32 -5 -25 -61 -25
-66 0 -4 21 14 47 33 47 7 0 18 -7 25 -15z m26 -97 c9 -14 -23 -38 -51 -38
-28 0 -60 24 -51 38 9 15 93 15 102 0z"/>
</g>
</svg>
