<?xml version="1.0" standalone="no"?>
<!DOCTYPE svg PUBLIC "-//W3C//DTD SVG 20010904//EN"
 "http://www.w3.org/TR/2001/REC-SVG-20010904/DTD/svg10.dtd">
<svg version="1.0" xmlns="http://www.w3.org/2000/svg"
 width="25.000000pt" height="25.000000pt" viewBox="0 0 25.000000 25.000000"
 preserveAspectRatio="xMidYMid meet">

<g transform="translate(0.000000,25.000000) scale(0.100000,-0.100000)"
fill="#000000" stroke="none">
<path d="M35 180 c-4 -6 28 -10 90 -10 62 0 94 4 90 10 -8 13 -172 13 -180 0z"/>
<path d="M42 131 c-21 -13 10 -21 83 -21 73 0 104 8 83 21 -17 11 -149 11
-166 0z"/>
<path d="M35 70 c8 -13 172 -13 180 0 4 6 -28 10 -90 10 -62 0 -94 -4 -90 -10z"/>
</g>
</svg>
