<?xml version="1.0" standalone="no"?>
<!DOCTYPE svg PUBLIC "-//W3C//DTD SVG 20010904//EN"
 "http://www.w3.org/TR/2001/REC-SVG-20010904/DTD/svg10.dtd">
<svg version="1.0" xmlns="http://www.w3.org/2000/svg"
 width="118.000000pt" height="28.000000pt" viewBox="0 0 118.000000 28.000000"
 preserveAspectRatio="xMidYMid meet">

<g transform="translate(0.000000,28.000000) scale(0.100000,-0.100000)"
fill="#000000" stroke="none">
<path d="M82 269 c3 -8 20 -62 38 -121 18 -60 38 -108 45 -108 6 0 24 41 40
91 16 50 33 92 37 95 4 3 20 -37 36 -88 17 -55 33 -93 41 -93 11 0 91 200 91
228 0 12 -20 8 -25 -5 -2 -7 -14 -47 -26 -88 -12 -41 -25 -79 -29 -83 -4 -4
-20 35 -36 88 -38 124 -50 124 -88 0 -16 -52 -32 -93 -35 -89 -3 3 -17 44 -31
92 -19 65 -30 88 -44 90 -13 3 -17 -1 -14 -9z"/>
<path d="M1143 233 c1 -10 6 -24 11 -32 7 -10 3 -12 -15 -6 -19 6 -22 5 -12
-5 25 -27 67 16 43 45 -17 20 -30 19 -27 -2z m25 -24 c-3 -8 -7 -3 -11 10 -4
17 -3 21 5 13 5 -5 8 -16 6 -23z"/>
<path d="M420 140 l0 -100 50 0 c28 0 50 5 50 10 0 6 -18 10 -40 10 l-40 0 0
40 c0 39 1 40 35 40 19 0 35 5 35 11 0 6 -14 9 -32 7 -31 -3 -33 -1 -33 27 0
27 3 30 38 33 55 5 45 22 -13 22 l-50 0 0 -100z"/>
<path d="M547 233 c-4 -3 -7 -48 -7 -100 l0 -93 49 0 c28 0 53 5 56 10 4 6
-10 10 -34 10 l-41 0 0 90 c0 83 -5 101 -23 83z"/>
<path d="M660 140 l0 -100 44 0 c62 0 104 18 121 51 19 36 19 72 0 108 -16 33
-39 41 -112 41 l-53 0 0 -100z m134 58 c23 -32 20 -90 -4 -116 -15 -16 -33
-22 -60 -22 l-40 0 0 80 0 80 44 0 c35 0 48 -5 60 -22z"/>
<path d="M885 164 c-37 -82 -51 -124 -41 -124 3 0 13 18 22 40 14 36 20 40 50
40 30 0 36 -4 50 -40 9 -22 22 -40 30 -40 8 0 14 2 14 5 0 6 -81 189 -86 194
-2 2 -19 -32 -39 -75z m55 -21 c0 -7 -12 -13 -26 -13 -21 0 -25 3 -19 18 4 9
10 25 13 36 5 17 6 16 18 -5 7 -13 13 -30 14 -36z"/>
<path d="M1013 230 c-17 -7 -23 -18 -23 -39 0 -26 7 -34 40 -51 60 -31 73 -86
26 -113 -15 -9 -143 -13 -466 -17 l-445 -6 456 -2 c448 -2 457 -2 483 19 18
14 26 30 26 53 0 40 -15 61 -60 84 -42 20 -48 55 -12 60 13 2 30 -2 38 -8 11
-10 14 -9 14 4 0 9 -6 16 -14 16 -8 0 -20 2 -28 4 -7 3 -23 1 -35 -4z"/>
<path d="M27 3 c18 -2 50 -2 70 0 21 2 7 4 -32 4 -38 0 -55 -2 -38 -4z"/>
</g>
</svg>
