<?xml version="1.0" standalone="no"?>
<!DOCTYPE svg PUBLIC "-//W3C//DTD SVG 20010904//EN"
 "http://www.w3.org/TR/2001/REC-SVG-20010904/DTD/svg10.dtd">
<svg version="1.0" xmlns="http://www.w3.org/2000/svg"
 width="512.000000pt" height="512.000000pt" viewBox="0 0 512.000000 512.000000"
 preserveAspectRatio="xMidYMid meet">

<g transform="translate(0.000000,512.000000) scale(0.100000,-0.100000)"
fill="#000000" stroke="none">
<path d="M0 4865 l0 -255 257 -2 256 -3 436 -920 c240 -506 447 -944 460 -972
l24 -52 -180 -308 c-160 -275 -182 -319 -203 -398 -54 -211 -10 -386 131 -525
31 -31 83 -70 116 -88 123 -65 30 -62 1751 -62 l1562 0 0 255 0 255 -1488 0
c-1631 0 -1532 -4 -1532 57 0 15 51 122 112 239 l113 213 995 3 995 3 65 22
c116 40 202 109 263 211 19 31 236 422 482 867 246 446 456 819 466 830 43 49
51 132 19 218 -23 60 -67 108 -125 134 -38 17 -136 18 -1970 21 l-1931 2 -114
255 -115 255 -422 0 -423 0 0 -255z"/>
<path d="M1380 997 c-269 -91 -416 -379 -329 -645 56 -171 224 -313 406 -344
260 -43 523 139 579 401 18 89 18 134 -5 222 -46 180 -182 321 -360 373 -81
24 -211 21 -291 -7z"/>
<path d="M3940 997 c-269 -91 -416 -379 -329 -645 56 -171 224 -313 406 -344
260 -43 523 139 579 401 18 89 18 134 -5 222 -46 180 -182 321 -360 373 -81
24 -211 21 -291 -7z"/>
</g>
</svg>
