<?xml version="1.0" standalone="no"?>
<!DOCTYPE svg PUBLIC "-//W3C//DTD SVG 20010904//EN"
 "http://www.w3.org/TR/2001/REC-SVG-20010904/DTD/svg10.dtd">
<svg version="1.0" xmlns="http://www.w3.org/2000/svg"
 width="25.000000pt" height="25.000000pt" viewBox="0 0 25.000000 25.000000"
 preserveAspectRatio="xMidYMid meet">

<g transform="translate(0.000000,25.000000) scale(0.100000,-0.100000)"
fill="#000000" stroke="none">
<path d="M10 220 c0 -5 4 -10 10 -10 18 0 51 -79 42 -98 -17 -33 -3 -42 63
-42 35 0 67 4 70 10 4 6 -17 10 -54 10 -34 0 -61 4 -61 10 0 6 15 10 34 10 19
0 42 3 51 6 18 7 57 78 48 88 -4 3 -41 6 -84 6 -43 0 -81 5 -84 10 -3 6 -13
10 -21 10 -8 0 -14 -4 -14 -10z"/>
<path d="M54 49 c-3 -6 -2 -15 4 -21 13 -13 32 -2 32 18 0 16 -26 19 -36 3z"/>
<path d="M162 43 c4 -21 33 -25 33 -3 0 8 -8 16 -18 18 -14 3 -18 -1 -15 -15z"/>
</g>
</svg>
